<svg xmlns="http://www.w3.org/2000/svg" width="785.6" height="185">
  <path fill="none" d="M-3-4h799v195H-3z"/>
  <g fill="#82CA9D">
    <path d="M368.844 34.293c13.469 0 25.845 4.732 35.674 12.376 1.819 1.456 4.731 1.274 6.188-.91 1.639-1.638 1.273-4.732-.729-6.37-11.102-8.554-25.48-14.015-41.133-14.015-36.583.182-66.25 28.757-66.25 64.977 0 35.491 29.667 64.249 66.25 64.249 15.652 0 30.031-5.278 41.133-13.832 2.002-1.457 2.367-4.732.547-6.371-1.274-2.184-4.187-2.548-6.371-1.092-9.464 8.008-21.84 12.377-35.309 12.377-31.851 0-57.333-24.935-57.333-55.331 0-31.123 25.482-56.058 57.333-56.058zM477.449 64.417c-11.284 0-21.449 5.096-28.449 13.104V30.563c0-2.366-2.043-4.368-4.591-4.368-2.366 0-4.409 2.002-4.409 4.368v118.668c0 .546.228.91.409 1.456s.478 1.11.843 1.656c.91.91 2.297 1.656 3.571 1.656h.909c.183 0 .365-.382.365-.382 1.273-.364 2.184-1.192 2.729-2.284.183-.184-.004-.415.178-.778 0-.182-.005-.414-.005-.778V99.543c0-15.652 12.938-26.209 28.409-26.209 15.652 0 28.591 10.557 28.591 26.209v49.688c0 2.366 2.044 4.368 4.409 4.368 2.549 0 4.591-2.002 4.591-4.368V99.543c.001-20.566-16.983-35.126-37.55-35.126zM620.499 64.417c-2.365 0-4.499 1.82-4.499 4.368v13.104c-7-10.557-19.706-17.473-33.356-17.473-23.479 0-42.157 20.203-42.157 44.591 0 24.389 18.646 44.592 42.124 44.592 13.65 0 26.39-7.098 33.39-17.654v13.286c0 2.366 2.134 4.368 4.499 4.368 2.367 0 4.501-2.002 4.501-4.368V68.785c-.001-2.549-2.135-4.368-4.502-4.368zm-37.722 80.446c-18.199 0-33.488-15.834-33.488-35.855 0-20.021 15.289-36.037 33.488-36.037 18.383 0 33.49 16.017 33.49 36.037.001 20.021-15.107 35.855-33.49 35.855zM699.438 64.598c-17.107 0-29.185 11.285-35.917 21.841-.547.728-.521 1.456-1.521 2.184V68.966c0-2.548-1.634-4.368-3.817-4.368-2.549 0-4.183 1.82-4.183 4.368v80.265c0 2.548 1.634 4.368 4.183 4.368 2.184 0 3.817-1.82 3.817-4.368V110.1c0-.364.245-.728.61-1.456 1.273-3.64 4.853-12.741 10.86-20.749 6.188-8.008 14.257-14.561 25.905-14.561 2.367 0 4.4-2.002 4.4-4.368.001-2.548-1.97-4.368-4.337-4.368zM751.307 64H740V31.291c0-2.184-2.315-4.368-4.681-4.368-2.186 0-4.319 2.184-4.319 4.368V64h-11.361c-4.369 0-4.369 2.315-4.369 4.5 0 2.184 0 4.5 4.369 4.5H731v65.129c0 8.918 6.604 15.471 15.522 15.471 2.184 0 4.485-2.184 4.485-4.368s-2.319-4.55-4.503-4.55-6.504-2.185-6.504-6.553V73h11.307c2.186 0 4.369-2.316 4.369-4.5 0-2.185-2.184-4.5-4.369-4.5z"/>
  </g>
  <g fill="#FFF">
    <path d="M89.02 145H28V30.563c0-2.366-2.043-4.368-4.591-4.368-2.366 0-4.409 2.002-4.409 4.368v118.668c0 2.366 2.131 4.769 4.498 4.769H89.02c2.548 0 4.55-2.043 4.55-4.409 0-2.548-2.002-4.591-4.55-4.591zM115.409 35.295c-2.366 0-4.409 2.002-4.409 4.368v4.186c0 2.548 2.043 4.732 4.409 4.732 2.548 0 4.591-2.184 4.591-4.732v-4.186c0-2.366-2.043-4.368-4.591-4.368zM115.409 64.417c-2.366 0-4.409 1.82-4.409 4.368v80.447c0 2.366 2.043 4.368 4.409 4.368 2.548 0 4.591-2.002 4.591-4.368V68.785c0-2.549-2.043-4.368-4.591-4.368zM187.477 26.377c-7.098 0-13.468 1.638-17.836 6.37C165.455 37.661 164 44.396 164 53.496V63h-12.197c-2.366 0-4.368 2.043-4.368 4.409 0 2.548 2.002 4.591 4.368 4.591H164v77.414c0 2.365 2.043 4.367 4.591 4.367 2.366 0 4.409-2.002 4.409-4.367V72h12.11c2.548 0 4.55-2.043 4.55-4.591 0-2.366-2.002-4.409-4.55-4.409H173v-9.504c0-8.19 1.414-12.558 3.416-14.742 1.82-2.184 4.984-3.458 11.173-3.458 2.365 0 4.312-2.002 4.312-4.368 0-2.549-2.059-4.551-4.424-4.551zM244.245 64.417c-24.025 0-43.218 20.021-43.218 44.773 0 24.389 19.342 44.41 43.367 44.41 15.106 0 28.418-8.008 36.062-20.203 1.274-2.184.559-4.732-1.443-6.188-1.82-1.092-4.544-.728-5.818 1.456-6.006 10.011-16.923 16.375-28.753 16.375-18.383 0-33.668-15.04-34.578-34.04h73.167c2.366 0 3.971-1.992 3.971-4.358v-.728C286 82.617 267.178 64.417 244.245 64.417zM210.409 102c3.276-17 17.291-28.939 34.035-28.939 16.381 0 30.577 11.939 33.489 28.939h-67.524z"/>
  </g>
</svg>
